<?xml version="1.0" encoding="utf-8"?>
<!-- Generator: Adobe Illustrator 26.1.0, SVG Export Plug-In . SVG Version: 6.00 Build 0)  -->
<svg version="1.1" id="레이어_1" xmlns="http://www.w3.org/2000/svg" xmlns:xlink="http://www.w3.org/1999/xlink" x="0px"
	 y="0px" viewBox="0 0 102.3 90.5" style="enable-background:new 0 0 102.3 90.5;" xml:space="preserve">
<style type="text/css">
	.st0{fill:#BA000C;}
	.st1{fill:#00387F;}
	.st2{fill:#ACADAE;}
</style>
<path class="st0" d="M68.1,0H34.5c-0.1,0-0.2,0.1-0.2,0.2l0,0V34h8.8l8.2-11.3L59.5,34h8.8V0.2C68.4,0.1,68.3,0,68.1,0
	C68.2,0,68.1,0,68.1,0z"/>
<path class="st1" d="M34.3,34H0.6c-0.1,0-0.2,0.1-0.2,0.2v22.5h11.3v11.3h22.5c0.1,0,0.1-0.1,0.2-0.1L34.3,34z"/>
<path class="st2" d="M102.3,56.6H90.9V45.3h11.3V34.1c0-0.1-0.1-0.1-0.1-0.1H68.3v33.8c0,0.1,0.1,0.2,0.2,0.2h0h33.6
	c0.1,0,0.2-0.1,0.2-0.2l0,0L102.3,56.6z"/>
<path class="st2" d="M8.4,84.9c-0.1-0.4-0.4-0.8-0.6-1.1c-0.3-0.3-0.6-0.6-1-0.8c-0.4-0.2-0.9-0.4-1.3-0.6l-1-0.4
	c-0.3-0.1-0.5-0.2-0.7-0.3c-0.2-0.1-0.4-0.2-0.6-0.4c-0.2-0.1-0.3-0.3-0.4-0.5c-0.1-0.2-0.2-0.4-0.1-0.7c0-0.5,0.2-1.1,0.6-1.4
	c0.5-0.3,1.1-0.5,1.8-0.5c0.5,0,1,0,1.5,0.1c0.4,0.1,0.8,0.2,1.2,0.3l0,0v-0.1c0.2-0.5,0.3-1,0.4-1.6l0,0h0
	c-0.5-0.2-0.9-0.3-1.4-0.4c-0.6-0.1-1.1-0.2-1.7-0.1c-1.2-0.1-2.3,0.3-3.3,1c-0.8,0.7-1.2,1.6-1.1,2.6c0,0.4,0.1,0.8,0.2,1.2
	c0.1,0.3,0.3,0.6,0.5,0.9c0.2,0.3,0.5,0.5,0.8,0.7c0.3,0.2,0.7,0.4,1,0.5L3.9,84L5,84.5c0.3,0.1,0.5,0.3,0.8,0.5
	c0.2,0.2,0.4,0.4,0.5,0.6c0.1,0.3,0.2,0.6,0.1,0.9c0,0.6-0.2,1.2-0.7,1.6c-0.7,0.5-1.5,0.7-2.2,0.6c-0.5,0-1.1,0-1.6-0.2
	c-0.4-0.1-0.9-0.2-1.3-0.4H0.5L0.2,89C0.1,89.3,0,89.6,0,89.9l0,0l0.8,0.3l0.8,0.2l0.9,0.1h1.1c1.3,0.1,2.7-0.3,3.8-1.1
	c0.9-0.8,1.4-1.9,1.4-3.1C8.6,85.8,8.6,85.3,8.4,84.9z"/>
<path class="st2" d="M18.8,88.6L18.8,88.6l-5.6-0.1V84h4.4l0.1-0.5v-0.4v-0.4l-0.1-0.5h-4.4v-3.7h5.5l0-0.5v-0.4c0-0.3,0-0.6,0-0.8
	v-0.1h-7.5v13.6h7.6l0-0.5v-0.4C18.9,89.1,18.9,88.8,18.8,88.6z"/>
<path class="st2" d="M32,80.7c-0.2-0.8-0.5-1.5-1-2.2c-0.5-0.6-1.1-1.1-1.8-1.5c-1.6-0.7-3.5-0.7-5.1,0c-0.7,0.3-1.3,0.8-1.8,1.5
	c-0.5,0.7-0.8,1.4-1.1,2.2c-0.5,1.8-0.5,3.8,0,5.6c0.2,0.8,0.6,1.6,1.1,2.2c0.5,0.6,1.1,1.1,1.8,1.4c1.6,0.7,3.5,0.7,5.1,0
	c0.7-0.3,1.3-0.8,1.8-1.4c0.5-0.7,0.8-1.4,1-2.2C32.5,84.5,32.5,82.6,32,80.7L32,80.7z M26.6,88.7c-0.6,0-1.1-0.1-1.6-0.4
	c-0.4-0.2-0.8-0.6-1.1-1c-0.3-0.5-0.5-1.1-0.7-1.6c-0.3-1.4-0.3-2.9,0-4.4c0.1-0.6,0.3-1.1,0.7-1.6c0.3-0.4,0.7-0.8,1.1-1
	c0.5-0.2,1-0.4,1.6-0.4c0.5,0,1.1,0.1,1.6,0.4c0.5,0.2,0.8,0.6,1.1,1c0.3,0.5,0.5,1.1,0.7,1.6c0.3,1.4,0.3,2.9,0,4.4
	c-0.1,0.6-0.3,1.1-0.7,1.6c-0.3,0.4-0.7,0.8-1.1,1C27.7,88.6,27.2,88.7,26.6,88.7L26.6,88.7z"/>
<path class="st2" d="M44.7,76.7c-0.6-0.1-1.3-0.1-1.9,0h-0.1v7.7c0,0.7,0,1.3-0.2,2c-0.1,0.5-0.2,0.9-0.5,1.3
	c-0.2,0.3-0.5,0.6-0.8,0.7c-0.4,0.2-0.9,0.3-1.3,0.2c-0.5,0-0.9-0.1-1.3-0.2c-0.4-0.1-0.7-0.4-0.9-0.7c-0.2-0.4-0.4-0.8-0.5-1.3
	c-0.1-0.7-0.2-1.3-0.2-2v-7.7h-0.1c-0.3,0-0.6-0.1-0.9-0.1c-0.3,0-0.7,0-1,0.1h-0.1v8c0,0.8,0.1,1.6,0.3,2.4
	c0.1,0.7,0.4,1.3,0.8,1.8c0.4,0.5,0.9,0.9,1.5,1.1c1.5,0.5,3,0.5,4.5,0c0.6-0.2,1.1-0.6,1.5-1.1c0.4-0.5,0.7-1.2,0.8-1.8
	c0.2-0.8,0.3-1.6,0.3-2.4L44.7,76.7L44.7,76.7z"/>
<path class="st2" d="M55.4,89v-0.5h-5.3V76.8l-0.5-0.1h-0.5h-0.5l-0.5,0.1v13.6h7.2v-0.1c0-0.3,0.1-0.6,0.1-0.9L55.4,89z"/>
<path class="st2" d="M66.8,76.8L66.8,76.8h-9.5l0,0c-0.1,0.4-0.1,0.8-0.1,1.1c0,0.4,0,0.8,0.1,1.2l0,0h3.3v11.1l0.8,0.1h0.7h0.7
	l0.7-0.1V79.1h3.3l0,0C66.9,78.4,66.9,77.6,66.8,76.8L66.8,76.8z"/>
<path class="st2" d="M77.4,87.9L77.4,87.9h-5.1v-3.5h3.9l0,0c0.1-0.4,0.1-0.8,0.1-1.2c0-0.4,0-0.8-0.1-1.2l0,0h-3.9v-2.8h4.9l0,0
	c0.1-0.8,0.1-1.6,0-2.3l0,0h-7.6v13.5h7.8l0,0c0.1-0.4,0.1-0.8,0.1-1.2C77.5,88.8,77.5,88.3,77.4,87.9z"/>
<path class="st2" d="M89.5,89.9c-0.1-0.8-0.3-1.5-0.6-2.2l0,0l0,0c-0.4,0.1-0.8,0.2-1.2,0.3c-0.4,0.1-0.8,0.1-1.2,0.1
	c-2.5,0-3.8-1.5-3.8-4.5c-0.1-1.2,0.2-2.4,0.9-3.4c0.7-0.8,1.7-1.2,2.7-1.1c0.4,0,0.8,0,1.2,0.1c0.4,0.1,0.8,0.2,1.2,0.3l0,0
	l0.4-1.1c0.1-0.4,0.2-0.7,0.2-1.1l0,0l0,0c-0.5-0.2-1.1-0.4-1.6-0.5c-0.6-0.1-1.1-0.1-1.7-0.1c-0.9,0-1.9,0.2-2.7,0.5
	c-0.8,0.3-1.5,0.8-2,1.5c-0.6,0.6-1,1.4-1.2,2.2c-0.3,0.9-0.4,1.8-0.4,2.8c0,0.9,0.1,1.9,0.4,2.8c0.2,0.8,0.7,1.6,1.2,2.2
	c0.5,0.6,1.2,1.1,2,1.4c0.9,0.4,1.8,0.5,2.8,0.5c0.6,0,1.1,0,1.7-0.1C88.3,90.3,88.9,90.2,89.5,89.9L89.5,89.9L89.5,89.9z"/>
<path class="st2" d="M102.2,76.8c-0.5-0.1-0.9-0.1-1.4-0.1c-0.5,0-0.9,0-1.4,0.1l0,0V82H95v-5.3l0,0c-0.5-0.1-0.9-0.1-1.4-0.1
	c-0.5,0-0.9,0-1.4,0.1l0,0v13.5l0,0c0.5,0.1,0.9,0.1,1.4,0.1c0.5,0,0.9,0,1.4-0.1l0,0v-5.8h4.4v5.8l0,0c0.9,0.1,1.8,0.1,2.8,0l0,0
	V76.8L102.2,76.8z"/>
</svg>
